<svg xmlns="http://www.w3.org/2000/svg" version="1.1" xmlns:xlink="http://www.w3.org/1999/xlink" xmlns:svgjs="http://svgjs.dev/svgjs" width="1440" height="560" preserveAspectRatio="none" viewBox="0 0 1440 560"><g mask="url(&quot;#SvgjsMask1017&quot;)" fill="none"><rect width="1440" height="560" x="0" y="0" fill="rgba(231, 210, 197, 1)"></rect><path d="M1440 0L1430.09 0L1440 142.74z" fill="rgba(255, 255, 255, .1)"></path><path d="M1430.09 0L1440 142.74L1440 178.42000000000002L915.03 0z" fill="rgba(255, 255, 255, .075)"></path><path d="M915.0300000000001 0L1440 178.42000000000002L1440 327.73L674.72 0z" fill="rgba(255, 255, 255, .05)"></path><path d="M674.72 0L1440 327.73L1440 393.40000000000003L582.38 0z" fill="rgba(255, 255, 255, .025)"></path><path d="M0 560L444.1 560L0 454.06z" fill="rgba(0, 0, 0, .1)"></path><path d="M0 454.06L444.1 560L613.75 560L0 316.15999999999997z" fill="rgba(0, 0, 0, .075)"></path><path d="M0 316.15999999999997L613.75 560L1053.23 560L0 259.36999999999995z" fill="rgba(0, 0, 0, .05)"></path><path d="M0 259.37L1053.23 560L1289.66 560L0 186.41000000000003z" fill="rgba(0, 0, 0, .025)"></path></g><defs><mask id="SvgjsMask1017"><rect width="1440" height="560" fill="#ffffff"></rect></mask></defs></svg>